<svg width="116" height="114" viewBox="0 0 116 114" fill="none" xmlns="http://www.w3.org/2000/svg">
<path d="M92.9963 98.8914C92.1174 84.2199 82.1344 72.0135 68.6361 67.8655C76.8121 64.0343 82.4899 55.7086 82.4899 46.0564C82.4899 32.7709 71.7465 22 58.4951 22C45.2436 22 34.5002 32.7709 34.5002 46.0564C34.5002 55.7086 40.178 64.0343 48.3639 67.8655C34.8656 72.0135 24.8826 84.2199 24.0037 98.8914C23.9346 100.03 24.8332 101 25.9786 101C27.0154 101 27.8844 100.188 27.9535 99.1487C28.8916 83.0617 42.2122 70.3108 58.4951 70.3108C74.778 70.3108 88.0986 83.0617 89.0465 99.1487C89.1057 100.188 89.9747 101 91.0214 101C92.1668 101 93.0654 100.03 92.9963 98.8914ZM38.45 46.0564C38.45 34.9588 47.4258 25.9599 58.4951 25.9599C69.5643 25.9599 78.5401 34.9588 78.5401 46.0564C78.5401 57.154 69.5643 66.1529 58.4951 66.1529C47.4258 66.1529 38.45 57.154 38.45 46.0564Z" fill="black"/>
<path d="M114 57C114 87.343 88.9609 112 58 112C27.0391 112 2 87.343 2 57C2 26.657 27.0391 2 58 2C88.9609 2 114 26.657 114 57Z" stroke="black" stroke-width="4"/>
</svg>
