<svg width="19" height="19" viewBox="0 0 19 19" fill="none" xmlns="http://www.w3.org/2000/svg">
<path d="M6.23077 7.02991L6.23077 2.11814C6.23059 1.97136 6.25935 1.826 6.3154 1.69035C6.37144 1.5547 6.45368 1.43142 6.5574 1.32758C6.66112 1.22373 6.78429 1.14135 6.91988 1.08514C7.05546 1.02893 7.20079 1 7.34757 1L16.8819 1C17.1784 1 17.4628 1.1178 17.6725 1.32749C17.8822 1.53719 18 1.82159 18 2.11814L18 11.6471C18.0007 11.7943 17.9723 11.9402 17.9164 12.0764C17.8605 12.2126 17.7782 12.3364 17.6743 12.4407C17.5704 12.545 17.4469 12.6277 17.3109 12.6841C17.1749 12.7405 17.0291 12.7694 16.8819 12.7692L11.7652 12.7692" stroke="white" stroke-width="2" stroke-miterlimit="10"/>
<path d="M12.7692 17.152L12.7692 7.07886C12.7692 6.61051 12.3896 6.23083 11.9212 6.23083L1.84802 6.23084C1.37967 6.23084 0.999995 6.61051 0.999995 7.07886L0.999996 17.152C0.999996 17.6204 1.37967 18.0001 1.84802 18.0001L11.9212 18.0001C12.3896 18.0001 12.7692 17.6204 12.7692 17.152Z" stroke="white" stroke-width="2" stroke-miterlimit="10"/>
</svg>
