<svg width="20" height="20" viewBox="0 0 20 20" fill="#000" xmlns="http://www.w3.org/2000/svg">
<path fill-rule="evenodd" clip-rule="evenodd" d="M0.418415 0.418415C0.976316 -0.139472 1.88083 -0.139472 2.43873 0.418415L10 7.97973L17.5613 0.418415C18.1192 -0.139472 19.0237 -0.139472 19.5816 0.418415C20.1395 0.976316 20.1395 1.88083 19.5816 2.43873L12.0203 10L19.5816 17.5613C20.1395 18.1192 20.1395 19.0237 19.5816 19.5816C19.0237 20.1395 18.1192 20.1395 17.5613 19.5816L10 12.0203L2.43873 19.5816C1.88083 20.1395 0.976316 20.1395 0.418415 19.5816C-0.139472 19.0237 -0.139472 18.1192 0.418415 17.5613L7.97973 10L0.418415 2.43873C-0.139472 1.88083 -0.139472 0.976316 0.418415 0.418415Z" fill="inherit"/>
</svg>
