<svg width="18" height="19" viewBox="0 0 18 19" fill="none" xmlns="http://www.w3.org/2000/svg">
<path fill-rule="evenodd" clip-rule="evenodd" d="M10.017 0.39388C10.7231 -0.00254326 11.5594 -0.104667 12.3416 0.109964C12.6884 0.205132 12.9847 0.37092 13.264 0.558172C13.5293 0.736011 13.8336 0.971459 14.1863 1.24435L14.2377 1.28416C14.5905 1.55705 14.8948 1.79249 15.1333 2.00442C15.3844 2.22754 15.6186 2.47223 15.796 2.78258C16.1959 3.48254 16.299 4.31131 16.0824 5.08657C15.9864 5.43031 15.8191 5.72404 15.6302 6.0009C15.4508 6.26386 15.2132 6.56551 14.9378 6.9151L7.69266 16.1147C7.67429 16.138 7.65624 16.1609 7.63839 16.1837C7.2983 16.6159 7.04115 16.9427 6.72279 17.2111C6.45335 17.4383 6.15524 17.6298 5.83597 17.7807C5.45879 17.959 5.05279 18.0582 4.51574 18.1895C4.48758 18.1963 4.45906 18.2033 4.43017 18.2104L2.26274 18.7407C2.11264 18.7775 1.9413 18.8195 1.79016 18.8425C1.62167 18.8682 1.36076 18.8914 1.07259 18.8C0.726184 18.69 0.430613 18.4613 0.238904 18.155C0.0794288 17.9001 0.038851 17.6436 0.0230707 17.4754C0.00891239 17.3244 0.00841273 17.1495 0.00797411 16.9962C0.00794351 16.9867 0.00792299 16.9773 0.00789239 16.968L0.000884587 14.7835C0.000782581 14.754 0.000680647 14.7249 0.000578641 14.6962C-0.00141046 14.148 -0.00290995 13.7335 0.0800919 13.3275C0.150353 12.9839 0.265395 12.6508 0.42233 12.3366C0.607735 11.9654 0.865167 11.6388 1.20568 11.2068C1.22353 11.1842 1.24162 11.1612 1.25994 11.138L8.50513 1.93827C8.78044 1.58867 9.01801 1.28701 9.23182 1.05064C9.45694 0.801778 9.70379 0.569647 10.017 0.39388ZM11.7971 2.05871C11.5364 1.98717 11.2577 2.02121 11.0223 2.15335C10.9823 2.17579 10.9064 2.22844 10.7509 2.40046C10.5891 2.57927 10.3943 2.82571 10.0933 3.20795L13.3096 5.69636C13.6107 5.31412 13.8045 5.06701 13.9403 4.86809C14.071 4.6767 14.104 4.59093 14.1162 4.54704C14.1885 4.28863 14.1541 4.01237 14.0208 3.77905C13.9981 3.73943 13.945 3.6642 13.7715 3.50996C13.591 3.34965 13.3424 3.15659 12.9567 2.85822C12.5711 2.55984 12.3218 2.36765 12.1211 2.23311C11.928 2.10367 11.8414 2.07086 11.7971 2.05871ZM12.0543 7.29029L8.83797 4.80189L2.86811 12.3821C2.45014 12.9128 2.33227 13.0703 2.25068 13.2337C2.17221 13.3908 2.11468 13.5573 2.07956 13.7291C2.04303 13.9078 2.03882 14.1038 2.04098 14.777L2.04718 16.7107L3.9412 16.2473C4.60068 16.0859 4.79151 16.0343 4.95749 15.9557C5.11713 15.8803 5.26618 15.7845 5.40091 15.6709C5.54098 15.5528 5.66649 15.4013 6.08446 14.8706L12.0543 7.29029ZM8.81951 17.989C8.81951 17.4306 9.27619 16.9779 9.83956 16.9779H16.9799C17.5433 16.9779 18 17.4306 18 17.989C18 18.5474 17.5433 19 16.9799 19H9.83956C9.27619 19 8.81951 18.5474 8.81951 17.989Z" fill="black"/>
</svg>
