<svg width="22" height="22" viewBox="0 0 22 22" fill="none" xmlns="http://www.w3.org/2000/svg">
<path d="M11 5.50012C11.6075 5.50012 12.1 5.99261 12.1 6.60012V12.1001C12.1 12.7077 11.6075 13.2001 11 13.2001C10.3925 13.2001 9.89999 12.7077 9.89999 12.1001V6.60012C9.89999 5.99261 10.3925 5.50012 11 5.50012Z" fill="inherit"/>
<path d="M11 16.5C11.6075 16.5 12.1 16.0076 12.1 15.4C12.1 14.7925 11.6075 14.3 11 14.3C10.3925 14.3 9.89999 14.7925 9.89999 15.4C9.89999 16.0076 10.3925 16.5 11 16.5Z" fill="inherit"/>
<path fill-rule="evenodd" clip-rule="evenodd" d="M0 11C0 4.92487 4.92487 0 11 0C17.0751 0 22 4.92487 22 11C22 17.0751 17.0751 22 11 22C4.92487 22 0 17.0751 0 11ZM11 2.2C6.13989 2.2 2.2 6.13989 2.2 11C2.2 15.8601 6.13989 19.8 11 19.8C15.8601 19.8 19.8 15.8601 19.8 11C19.8 6.13989 15.8601 2.2 11 2.2Z" fill="inherit"/>
</svg>
