<svg width="20" height="21" viewBox="0 0 20 21" stroke="#fff" fill="none" xmlns="http://www.w3.org/2000/svg">
<path d="M8.09548 1.50479L2.37539 5.239C0.541537 6.43623 0.541537 9.11574 2.37539 10.313L8.09548 14.0472C9.12168 14.7218 10.813 14.7218 11.8392 14.0472L17.5308 10.313C19.3551 9.11574 19.3551 6.44573 17.5308 5.24851L11.8392 1.51429C10.813 0.830161 9.12168 0.830161 8.09548 1.50479Z" stroke="inherit" stroke-width="2" stroke-linecap="round" stroke-linejoin="round"/>
<path d="M3.89571 11.5292L3.88621 15.9855C3.88621 17.1923 4.81739 18.4845 5.9576 18.8646L8.98868 19.8718C9.51128 20.0428 10.3759 20.0428 10.908 19.8718L13.9391 18.8646C15.0793 18.4845 16.0105 17.1923 16.0105 15.9855V11.5767" stroke="inherit" stroke-width="2" stroke-linecap="round" stroke-linejoin="round"/>
</svg>
