<svg width="15" height="18" viewBox="0 0 15 18" fill="none" xmlns="http://www.w3.org/2000/svg">
<path fill-rule="evenodd" clip-rule="evenodd" d="M7.5 1.63636C6.11925 1.63636 5 2.7353 5 4.09091V6.54545V6.54732C5.24768 6.54545 5.51498 6.54545 5.80373 6.54545H9.19625C9.485 6.54545 9.75233 6.54545 10 6.54733V6.54545V4.09091C10 2.7353 8.88075 1.63636 7.5 1.63636ZM11.6604 6.64634C11.6645 6.61328 11.6667 6.57961 11.6667 6.54545V4.09091C11.6667 1.83157 9.80117 0 7.5 0C5.19882 0 3.33333 1.83157 3.33333 4.09091V6.54545C3.33333 6.57961 3.33547 6.61329 3.33961 6.64634C3.07133 6.69089 2.81776 6.75697 2.57215 6.85685C1.5512 7.27206 0.740059 8.06842 0.317167 9.07085C0.141234 9.48788 0.0682586 9.92831 0.0336503 10.4263C-8.07457e-06 10.9107 -8.07715e-06 11.5058 2.56185e-07 12.2437V12.3018C-8.07715e-06 13.0396 -8.07457e-06 13.6348 0.0336503 14.1191C0.0682586 14.6171 0.141234 15.0576 0.317167 15.4746C0.740059 16.477 1.5512 17.2734 2.57215 17.6886C2.9969 17.8613 3.44547 17.933 3.95276 17.9669C4.44609 18 5.05227 18 5.80373 18H9.19625C9.94775 18 10.5539 18 11.0473 17.9669C11.5545 17.933 12.0031 17.8613 12.4278 17.6886C13.4488 17.2734 14.2599 16.477 14.6828 15.4746C14.8587 15.0576 14.9318 14.6171 14.9663 14.1191C15 13.6348 15 13.0396 15 12.3018V12.2437C15 11.5058 15 10.9107 14.9663 10.4263C14.9318 9.92831 14.8587 9.48788 14.6828 9.07085C14.2599 8.06842 13.4488 7.27206 12.4278 6.85685C12.1823 6.75697 11.9287 6.69089 11.6604 6.64634ZM4.06621 8.21103C3.64378 8.23934 3.39778 8.29227 3.20996 8.36869C2.59739 8.61775 2.1107 9.09565 1.85697 9.69701C1.77917 9.88143 1.72528 10.123 1.69645 10.5377C1.66712 10.9598 1.66667 11.4991 1.66667 12.2727C1.66667 13.0464 1.66712 13.5857 1.69645 14.0078C1.72528 14.4225 1.77917 14.664 1.85697 14.8484C2.1107 15.4498 2.59739 15.9277 3.20996 16.1768C3.39778 16.2532 3.64378 16.3061 4.06621 16.3344C4.49612 16.3632 5.04536 16.3636 5.83333 16.3636H9.16667C9.95467 16.3636 10.5039 16.3632 10.9338 16.3344C11.3562 16.3061 11.6022 16.2532 11.7901 16.1768C12.4026 15.9277 12.8893 15.4498 13.143 14.8484C13.2208 14.664 13.2747 14.4225 13.3036 14.0078C13.3329 13.5857 13.3333 13.0464 13.3333 12.2727C13.3333 11.4991 13.3329 10.9598 13.3036 10.5377C13.2747 10.123 13.2208 9.88143 13.143 9.69701C12.8893 9.09565 12.4026 8.61775 11.7901 8.36869C11.6022 8.29227 11.3562 8.23934 10.9338 8.21103C10.5039 8.18223 9.95467 8.18182 9.16667 8.18182H5.83333C5.04536 8.18182 4.49612 8.18223 4.06621 8.21103ZM7.5 10.6364C7.96025 10.6364 8.33333 11.0027 8.33333 11.4545V13.0909C8.33333 13.5428 7.96025 13.9091 7.5 13.9091C7.03975 13.9091 6.66667 13.5428 6.66667 13.0909V11.4545C6.66667 11.0027 7.03975 10.6364 7.5 10.6364Z" fill="#017C6E"/>
</svg>
