<svg width="21" height="21" viewBox="0 0 21 21" fill="#000" xmlns="http://www.w3.org/2000/svg">
<path fill-rule="evenodd" clip-rule="evenodd" d="M0.833374 5.33337C0.833374 2.84809 2.75216 0.833374 5.11909 0.833374H10.3572C12.4611 0.833374 14.1667 2.62423 14.1667 4.83337V5.83337C14.1667 6.38565 13.7403 6.83337 13.2143 6.83337C12.6883 6.83337 12.262 6.38565 12.262 5.83337V4.83337C12.262 3.7288 11.4092 2.83337 10.3572 2.83337H5.11909C3.80413 2.83337 2.73814 3.95266 2.73814 5.33337V16.3334C2.73814 17.7141 3.80413 18.8334 5.11909 18.8334H10.3572C11.4092 18.8334 12.262 17.938 12.262 16.8334V15.8334C12.262 15.2811 12.6883 14.8334 13.2143 14.8334C13.7403 14.8334 14.1667 15.2811 14.1667 15.8334V16.8334C14.1667 19.0425 12.4611 20.8334 10.3572 20.8334H5.11909C2.75216 20.8334 0.833374 18.8187 0.833374 16.3334V5.33337ZM16.3504 7.12626C16.7223 6.73574 17.3254 6.73574 17.6973 7.12626L20.5544 10.1263C20.9264 10.5168 20.9264 11.15 20.5544 11.5405L17.6973 14.5405C17.3254 14.931 16.7223 14.931 16.3504 14.5405C15.9785 14.15 15.9785 13.5168 16.3504 13.1263L17.5818 11.8334H9.40481C8.87881 11.8334 8.45243 11.3857 8.45243 10.8334C8.45243 10.2811 8.87881 9.83337 9.40481 9.83337H17.5818L16.3504 8.54048C15.9785 8.14995 15.9785 7.51679 16.3504 7.12626Z" fill="#inherit"/>
</svg>
