<svg width="20" height="20" viewBox="0 0 20 20" fill="none" xmlns="http://www.w3.org/2000/svg">
<path d="M12 15.5C12 14.0955 12 13.3933 12.3371 12.8889C12.483 12.6705 12.6705 12.483 12.8889 12.3371C13.3933 12 14.0955 12 15.5 12C16.9045 12 17.6067 12 18.1111 12.3371C18.3295 12.483 18.517 12.6705 18.6629 12.8889C19 13.3933 19 14.0955 19 15.5C19 16.9045 19 17.6067 18.6629 18.1111C18.517 18.3295 18.3295 18.517 18.1111 18.6629C17.6067 19 16.9045 19 15.5 19C14.0955 19 13.3933 19 12.8889 18.6629C12.6705 18.517 12.483 18.3295 12.3371 18.1111C12 17.6067 12 16.9045 12 15.5Z" stroke="black" stroke-width="2"/>
<path d="M1 15.5C1 14.0955 1 13.3933 1.33706 12.8889C1.48298 12.6705 1.67048 12.483 1.88886 12.3371C2.39331 12 3.09554 12 4.5 12C5.90446 12 6.60669 12 7.11114 12.3371C7.32952 12.483 7.51702 12.6705 7.66294 12.8889C8 13.3933 8 14.0955 8 15.5C8 16.9045 8 17.6067 7.66294 18.1111C7.51702 18.3295 7.32952 18.517 7.11114 18.6629C6.60669 19 5.90446 19 4.5 19C3.09554 19 2.39331 19 1.88886 18.6629C1.67048 18.517 1.48298 18.3295 1.33706 18.1111C1 17.6067 1 16.9045 1 15.5Z" stroke="black" stroke-width="2"/>
<path d="M1 4.5C1 3.09554 1 2.39331 1.33706 1.88886C1.48298 1.67048 1.67048 1.48298 1.88886 1.33706C2.39331 1 3.09554 1 4.5 1C5.90446 1 6.60669 1 7.11114 1.33706C7.32952 1.48298 7.51702 1.67048 7.66294 1.88886C8 2.39331 8 3.09554 8 4.5C8 5.90446 8 6.60669 7.66294 7.11114C7.51702 7.32952 7.32952 7.51702 7.11114 7.66294C6.60669 8 5.90446 8 4.5 8C3.09554 8 2.39331 8 1.88886 7.66294C1.67048 7.51702 1.48298 7.32952 1.33706 7.11114C1 6.60669 1 5.90446 1 4.5Z" stroke="black" stroke-width="2"/>
<path d="M12 4.5H19" stroke="black" stroke-width="2" stroke-linecap="round" stroke-linejoin="round"/>
<path d="M15.5 1V8" stroke="black" stroke-width="2" stroke-linecap="round" stroke-linejoin="round"/>
</svg>
