<svg width="20" height="20" viewBox="0 0 20 20" fill="#000" xmlns="http://www.w3.org/2000/svg">
<path fill-rule="evenodd" clip-rule="evenodd" d="M3.3783 1.14066e-06C3.3905 1.14066e-06 3.40273 1.14066e-06 3.415 1.14066e-06H5.62171C6.01734 -1.88593e-05 6.37336 -3.89125e-05 6.66942 0.0245411C6.98657 0.0508811 7.32336 0.110521 7.65244 0.281471C8.109 0.518661 8.4813 0.890961 8.7185 1.34757C8.8895 1.67665 8.9491 2.01343 8.9755 2.33059C9 2.62664 9 2.98265 9 3.37828V5.62172C9 6.01735 9 6.37337 8.9755 6.66942C8.9491 6.98657 8.8895 7.32336 8.7185 7.65244C8.4813 8.109 8.109 8.4813 7.65244 8.7185C7.32336 8.8895 6.98657 8.9491 6.66942 8.9755C6.37337 9 6.01735 9 5.62172 9H3.37828C2.98265 9 2.62664 9 2.33059 8.9755C2.01343 8.9491 1.67665 8.8895 1.34757 8.7185C0.890961 8.4813 0.518661 8.109 0.281471 7.65244C0.110521 7.32336 0.0508811 6.98657 0.0245411 6.66942C-3.89125e-05 6.37336 -1.88593e-05 6.01734 1.14066e-06 5.62171V3.415C1.14066e-06 3.40273 1.14066e-06 3.3905 1.14066e-06 3.3783C-1.88593e-05 2.98266 -3.89125e-05 2.62664 0.0245411 2.33059C0.0508811 2.01343 0.110521 1.67665 0.281471 1.34757C0.518661 0.890961 0.890961 0.518661 1.34757 0.281471C1.67665 0.110521 2.01343 0.0508811 2.33059 0.0245411C2.62664 -3.89125e-05 2.98266 -1.88593e-05 3.3783 1.14066e-06ZM2.27752 2.05297C2.27226 2.05488 2.26952 2.0563 2.26952 2.0563C2.17819 2.10373 2.10373 2.17819 2.0563 2.26952C2.0563 2.26952 2.05488 2.27226 2.05297 2.27752C2.05098 2.28299 2.04767 2.29312 2.04372 2.30961C2.03541 2.34427 2.02554 2.40145 2.01768 2.49611C2.00081 2.69932 2 2.9711 2 3.415V5.585C2 6.02891 2.00081 6.30068 2.01768 6.5039C2.02554 6.59855 2.03541 6.65574 2.04372 6.6904C2.04767 6.70688 2.05098 6.71701 2.05297 6.72249C2.05488 6.72775 2.0563 6.73049 2.0563 6.73049C2.10373 6.82181 2.17819 6.89627 2.26952 6.94371C2.26952 6.94371 2.27226 6.94513 2.27752 6.94704C2.28299 6.94903 2.29312 6.95234 2.30961 6.95629C2.34427 6.96459 2.40145 6.97446 2.49611 6.98232C2.69932 6.9992 2.9711 7 3.415 7H5.585C6.02891 7 6.30068 6.9992 6.5039 6.98232C6.59855 6.97446 6.65574 6.96459 6.6904 6.95629C6.70688 6.95234 6.71701 6.94903 6.72249 6.94704C6.72775 6.94513 6.73049 6.94371 6.73049 6.94371C6.82181 6.89627 6.89627 6.82181 6.94371 6.73049C6.94371 6.73049 6.94513 6.72775 6.94704 6.72249C6.94903 6.71701 6.95234 6.70688 6.95629 6.6904C6.96459 6.65574 6.97446 6.59855 6.98232 6.5039C6.9992 6.30068 7 6.02891 7 5.585V3.415C7 2.9711 6.9992 2.69932 6.98232 2.49611C6.97446 2.40145 6.96459 2.34427 6.95629 2.30961C6.95234 2.29312 6.94903 2.28299 6.94704 2.27752C6.94513 2.27226 6.94371 2.26952 6.94371 2.26952C6.89627 2.17819 6.82181 2.10373 6.73049 2.0563C6.73049 2.0563 6.72775 2.05488 6.72249 2.05297C6.71701 2.05098 6.70688 2.04767 6.6904 2.04372C6.65574 2.03541 6.59855 2.02554 6.5039 2.01768C6.30068 2.00081 6.02891 2 5.585 2H3.415C2.9711 2 2.69932 2.00081 2.49611 2.01768C2.40145 2.02554 2.34427 2.03541 2.30961 2.04372C2.29312 2.04767 2.28299 2.05098 2.27752 2.05297ZM14.3783 1.14066e-06H16.6217C17.0173 -1.88593e-05 17.3734 -3.89125e-05 17.6694 0.0245411C17.9866 0.0508811 18.3234 0.110521 18.6524 0.281471C19.109 0.518661 19.4813 0.890961 19.7185 1.34757C19.8895 1.67665 19.9491 2.01343 19.9755 2.33059C20 2.62665 20 2.98267 20 3.37832V5.62168C20 6.01733 20 6.37336 19.9755 6.66942C19.9491 6.98657 19.8895 7.32336 19.7185 7.65244C19.4813 8.109 19.109 8.4813 18.6524 8.7185C18.3234 8.8895 17.9866 8.9491 17.6694 8.9755C17.3734 9 17.0174 9 16.6217 9H14.3783C13.9827 9 13.6266 9 13.3306 8.9755C13.0134 8.9491 12.6766 8.8895 12.3476 8.7185C11.891 8.4813 11.5187 8.109 11.2815 7.65244C11.1105 7.32336 11.0509 6.98657 11.0245 6.66942C11 6.37337 11 6.01735 11 5.62172V3.37828C11 2.98265 11 2.62664 11.0245 2.33059C11.0509 2.01344 11.1105 1.67665 11.2815 1.34757C11.5187 0.890961 11.891 0.518661 12.3476 0.281471C12.6766 0.110521 13.0134 0.0508811 13.3306 0.0245411C13.6266 -3.89125e-05 13.9827 -1.88593e-05 14.3783 1.14066e-06ZM13.2775 2.05297C13.2723 2.05488 13.2695 2.0563 13.2695 2.0563C13.1782 2.10373 13.1037 2.17819 13.0563 2.26952C13.0563 2.26952 13.0549 2.27226 13.053 2.27752C13.051 2.28299 13.0477 2.29312 13.0437 2.30961C13.0354 2.34427 13.0255 2.40145 13.0177 2.49611C13.0008 2.69932 13 2.9711 13 3.415V5.585C13 6.02891 13.0008 6.30068 13.0177 6.5039C13.0255 6.59855 13.0354 6.65574 13.0437 6.6904C13.0477 6.70688 13.051 6.71701 13.053 6.72249C13.0549 6.72775 13.0563 6.73049 13.0563 6.73049C13.1037 6.82181 13.1782 6.89627 13.2695 6.94371C13.2695 6.94371 13.2723 6.94513 13.2775 6.94704C13.283 6.94903 13.2931 6.95234 13.3096 6.95629C13.3443 6.96459 13.4015 6.97446 13.4961 6.98232C13.6993 6.9992 13.9711 7 14.415 7H16.585C17.0289 7 17.3007 6.9992 17.5039 6.98232C17.5986 6.97446 17.6557 6.96459 17.6904 6.95629C17.7069 6.95234 17.717 6.94903 17.7225 6.94704C17.7277 6.94513 17.7305 6.94371 17.7305 6.94371C17.8218 6.89627 17.8963 6.82181 17.9437 6.73049C17.9437 6.73049 17.9451 6.72775 17.947 6.72249C17.949 6.71701 17.9523 6.70688 17.9563 6.6904C17.9646 6.65573 17.9745 6.59855 17.9823 6.5039C17.9992 6.30068 18 6.02891 18 5.585V3.415C18 2.9711 17.9992 2.69932 17.9823 2.49611C17.9745 2.40145 17.9646 2.34427 17.9563 2.30961C17.9523 2.29312 17.949 2.28299 17.947 2.27752C17.9451 2.27226 17.9437 2.26952 17.9437 2.26952C17.8963 2.17819 17.8218 2.10373 17.7305 2.0563C17.7305 2.0563 17.7277 2.05488 17.7225 2.05297C17.717 2.05098 17.7069 2.04767 17.6904 2.04372C17.6557 2.03541 17.5986 2.02554 17.5039 2.01768C17.3007 2.00081 17.0289 2 16.585 2H14.415C13.9711 2 13.6993 2.00081 13.4961 2.01768C13.4015 2.02554 13.3443 2.03541 13.3096 2.04372C13.2931 2.04767 13.283 2.05098 13.2775 2.05297ZM3.37828 11H5.62172C6.01735 11 6.37337 11 6.66942 11.0245C6.98657 11.0509 7.32336 11.1105 7.65244 11.2815C8.109 11.5187 8.4813 11.891 8.7185 12.3476C8.8895 12.6766 8.9491 13.0134 8.9755 13.3306C9 13.6266 9 13.9827 9 14.3783V16.6217C9 17.0174 9 17.3734 8.9755 17.6694C8.9491 17.9866 8.8895 18.3234 8.7185 18.6524C8.4813 19.109 8.109 19.4813 7.65244 19.7185C7.32336 19.8895 6.98657 19.9491 6.66942 19.9755C6.37336 20 6.01733 20 5.62168 20H3.37832C2.98267 20 2.62665 20 2.33059 19.9755C2.01343 19.9491 1.67665 19.8895 1.34757 19.7185C0.890961 19.4813 0.518661 19.109 0.281471 18.6524C0.110521 18.3234 0.0508811 17.9866 0.0245411 17.6694C-3.89125e-05 17.3734 -1.88593e-05 17.0173 1.14066e-06 16.6217V14.3783C-1.88593e-05 13.9827 -3.89125e-05 13.6266 0.0245411 13.3306C0.0508811 13.0134 0.110521 12.6766 0.281471 12.3476C0.518661 11.891 0.890961 11.5187 1.34757 11.2815C1.67665 11.1105 2.01344 11.0509 2.33059 11.0245C2.62664 11 2.98265 11 3.37828 11ZM2.27752 13.053C2.27226 13.0549 2.26952 13.0563 2.26952 13.0563C2.17819 13.1037 2.10373 13.1782 2.0563 13.2695C2.0563 13.2695 2.05488 13.2723 2.05297 13.2775C2.05098 13.283 2.04767 13.2931 2.04372 13.3096C2.03541 13.3443 2.02554 13.4015 2.01768 13.4961C2.00081 13.6993 2 13.9711 2 14.415V16.585C2 17.0289 2.00081 17.3007 2.01768 17.5039C2.02554 17.5986 2.03541 17.6557 2.04372 17.6904C2.04767 17.7069 2.05098 17.717 2.05297 17.7225C2.05488 17.7277 2.0563 17.7305 2.0563 17.7305C2.10373 17.8218 2.17819 17.8963 2.26952 17.9437C2.26952 17.9437 2.27226 17.9451 2.27752 17.947C2.28299 17.949 2.29312 17.9523 2.30961 17.9563C2.34427 17.9646 2.40145 17.9745 2.49611 17.9823C2.69932 17.9992 2.9711 18 3.415 18H5.585C6.02891 18 6.30068 17.9992 6.5039 17.9823C6.59855 17.9745 6.65573 17.9646 6.6904 17.9563C6.70688 17.9523 6.71701 17.949 6.72249 17.947C6.72775 17.9451 6.73049 17.9437 6.73049 17.9437C6.82181 17.8963 6.89627 17.8218 6.94371 17.7305C6.94371 17.7305 6.94513 17.7277 6.94704 17.7225C6.94903 17.717 6.95234 17.7069 6.95629 17.6904C6.96459 17.6557 6.97446 17.5986 6.98232 17.5039C6.9992 17.3007 7 17.0289 7 16.585V14.415C7 13.9711 6.9992 13.6993 6.98232 13.4961C6.97446 13.4015 6.96459 13.3443 6.95629 13.3096C6.95234 13.2931 6.94903 13.283 6.94704 13.2775C6.94513 13.2723 6.94371 13.2695 6.94371 13.2695C6.89627 13.1782 6.82181 13.1037 6.73049 13.0563L6.72861 13.0554C6.72861 13.0554 6.72536 13.054 6.72249 13.053C6.71701 13.051 6.70688 13.0477 6.6904 13.0437C6.65574 13.0354 6.59855 13.0255 6.5039 13.0177C6.30068 13.0008 6.02891 13 5.585 13H3.415C2.9711 13 2.69932 13.0008 2.49611 13.0177C2.40145 13.0255 2.34427 13.0354 2.30961 13.0437C2.29312 13.0477 2.28299 13.051 2.27752 13.053ZM14.3783 11H16.6217C17.0174 11 17.3734 11 17.6694 11.0245C17.9866 11.0509 18.3234 11.1105 18.6524 11.2815C19.109 11.5187 19.4813 11.891 19.7185 12.3476C19.8895 12.6766 19.9491 13.0134 19.9755 13.3306C20 13.6266 20 13.9827 20 14.3783V16.6217C20 17.0173 20 17.3734 19.9755 17.6694C19.9491 17.9866 19.8895 18.3234 19.7185 18.6524C19.4813 19.109 19.109 19.4813 18.6524 19.7185C18.3234 19.8895 17.9866 19.9491 17.6694 19.9755C17.3734 20 17.0173 20 16.6217 20H14.3783C13.9827 20 13.6266 20 13.3306 19.9755C13.0134 19.9491 12.6766 19.8895 12.3476 19.7185C11.891 19.4813 11.5187 19.109 11.2815 18.6524C11.1105 18.3234 11.0509 17.9866 11.0245 17.6694C11 17.3734 11 17.0174 11 16.6217V14.3783C11 13.9827 11 13.6266 11.0245 13.3306C11.0509 13.0134 11.1105 12.6766 11.2815 12.3476C11.5187 11.891 11.891 11.5187 12.3476 11.2815C12.6766 11.1105 13.0134 11.0509 13.3306 11.0245C13.6266 11 13.9827 11 14.3783 11ZM13.2775 13.053C13.2723 13.0549 13.2695 13.0563 13.2695 13.0563C13.1782 13.1037 13.1037 13.1782 13.0563 13.2695C13.0563 13.2695 13.0549 13.2723 13.053 13.2775C13.051 13.283 13.0477 13.2931 13.0437 13.3096C13.0354 13.3443 13.0255 13.4015 13.0177 13.4961C13.0008 13.6993 13 13.9711 13 14.415V16.585C13 17.0289 13.0008 17.3007 13.0177 17.5039C13.0255 17.5986 13.0354 17.6557 13.0437 17.6904C13.0477 17.7069 13.051 17.717 13.053 17.7225C13.0549 17.7277 13.0563 17.7305 13.0563 17.7305C13.1037 17.8218 13.1782 17.8963 13.2695 17.9437C13.2695 17.9437 13.2723 17.9451 13.2775 17.947C13.283 17.949 13.2931 17.9523 13.3096 17.9563C13.3443 17.9646 13.4015 17.9745 13.4961 17.9823C13.6993 17.9992 13.9711 18 14.415 18H16.585C17.0289 18 17.3007 17.9992 17.5039 17.9823C17.5986 17.9745 17.6557 17.9646 17.6904 17.9563C17.7069 17.9523 17.717 17.949 17.7225 17.947C17.7277 17.9451 17.7305 17.9437 17.7305 17.9437C17.8218 17.8963 17.8963 17.8218 17.9437 17.7305C17.9437 17.7305 17.9451 17.7277 17.947 17.7225C17.949 17.717 17.9523 17.7069 17.9563 17.6904C17.9646 17.6557 17.9745 17.5986 17.9823 17.5039C17.9992 17.3007 18 17.0289 18 16.585V14.415C18 13.9711 17.9992 13.6993 17.9823 13.4961C17.9745 13.4015 17.9646 13.3443 17.9563 13.3096C17.9523 13.2931 17.949 13.283 17.947 13.2775C17.9463 13.2756 17.9453 13.2729 17.9453 13.2729C17.9444 13.2709 17.9437 13.2695 17.9437 13.2695C17.8963 13.1782 17.8218 13.1037 17.7305 13.0563C17.7305 13.0563 17.7277 13.0549 17.7225 13.053C17.717 13.051 17.7069 13.0477 17.6904 13.0437C17.6557 13.0354 17.5986 13.0255 17.5039 13.0177C17.3007 13.0008 17.0289 13 16.585 13H14.415C13.9711 13 13.6993 13.0008 13.4961 13.0177C13.4015 13.0255 13.3443 13.0354 13.3096 13.0437C13.2931 13.0477 13.283 13.051 13.2775 13.053Z" fill="inherit"/>
</svg>
