<svg width="17" height="20" viewBox="0 0 17 20" fill="none" xmlns="http://www.w3.org/2000/svg">
<path fill-rule="evenodd" clip-rule="evenodd" d="M12.2 19.8C12.4922 19.8 12.7844 19.6873 13.006 19.4619L16.1132 16.3011C16.5003 15.9072 16.4949 15.2741 16.101 14.8869C15.7072 14.4997 15.074 14.5052 14.6869 14.899L13.2 16.4116L13.2 4.40004C13.2 3.84776 12.7523 3.40004 12.2 3.40004C11.6477 3.40004 11.2 3.84776 11.2 4.40004L11.2 16.4116L9.71316 14.899C9.326 14.5052 8.69286 14.4997 8.299 14.8869C7.90514 15.2741 7.89972 15.9072 8.28688 16.3011L11.394 19.4619C11.6156 19.6873 11.9078 19.8 12.2 19.8ZM5.19995 3.3884L6.68686 4.90102C7.07402 5.29488 7.70717 5.30031 8.10102 4.91314C8.49488 4.52598 8.50031 3.89284 8.11314 3.49898L5.00599 0.338101C4.78523 0.113526 4.49435 0.000828656 4.20321 6.56312e-06C4.20213 2.74832e-06 4.20104 8.40879e-07 4.19995 8.40784e-07C4.19887 8.4069e-07 4.19779 2.74794e-06 4.19672 6.56255e-06C3.90561 0.000847678 3.61476 0.113545 3.39402 0.338101L0.286859 3.49898C-0.100304 3.89284 -0.0948778 4.52598 0.298978 4.91314C0.692835 5.30031 1.32598 5.29488 1.71314 4.90102L3.19995 3.38851L3.19995 15.4C3.19995 15.9523 3.64766 16.4 4.19995 16.4C4.75223 16.4 5.19995 15.9523 5.19995 15.4L5.19995 3.3884Z" fill="white"/>
</svg>
