<svg width="22" height="22" viewBox="0 0 22 22" fill="none" xmlns="http://www.w3.org/2000/svg">
<path fill-rule="evenodd" clip-rule="evenodd" d="M0 11C0 4.92487 4.92487 0 11 0C17.0751 0 22 4.92487 22 11C22 17.0751 17.0751 22 11 22C4.92487 22 0 17.0751 0 11ZM11 2.2C6.13989 2.2 2.2 6.13989 2.2 11C2.2 15.8601 6.13989 19.8 11 19.8C15.8601 19.8 19.8 15.8601 19.8 11C19.8 6.13989 15.8601 2.2 11 2.2Z" fill="white"/>
<path fill-rule="evenodd" clip-rule="evenodd" d="M16.8105 7.20224C17.0632 7.4719 17.0632 7.9091 16.8105 8.17876L10.7974 14.5955C10.2921 15.1349 9.47266 15.1348 8.96728 14.5955L6.18952 11.6313C5.93683 11.3616 5.93683 10.9244 6.18952 10.6548C6.44221 10.3851 6.85191 10.3851 7.1046 10.6548L9.88236 13.619L15.8954 7.20224C16.1481 6.93259 16.5578 6.93259 16.8105 7.20224Z" fill="white" stroke="white" stroke-width="0.5"/>
</svg>
