<svg width="23" height="23" viewBox="0 0 23 23" fill="none" xmlns="http://www.w3.org/2000/svg">
<path fill-rule="evenodd" clip-rule="evenodd" d="M0.666626 11.6666C0.666626 5.59149 5.59149 0.666626 11.6666 0.666626C17.7417 0.666626 22.6666 5.59149 22.6666 11.6666C22.6666 17.7417 17.7417 22.6666 11.6666 22.6666C5.59149 22.6666 0.666626 17.7417 0.666626 11.6666ZM11.6666 2.86663C6.80652 2.86663 2.86663 6.80652 2.86663 11.6666C2.86663 16.5268 6.80652 20.4666 11.6666 20.4666C16.5268 20.4666 20.4666 16.5268 20.4666 11.6666C20.4666 6.80652 16.5268 2.86663 11.6666 2.86663Z" fill="inherit"/>
<path fill-rule="evenodd" clip-rule="evenodd" d="M14.8243 8.21301C15.0586 8.49703 15.0586 8.95752 14.8243 9.24154L9.84853 15.2727C9.3799 15.8408 8.6201 15.8407 8.15148 15.2727L6.17573 12.8779C5.94142 12.5939 5.94142 12.1334 6.17573 11.8494C6.41005 11.5654 6.78995 11.5654 7.02427 11.8494L9 14.2442L13.9757 8.21301C14.2101 7.929 14.59 7.929 14.8243 8.21301ZM17.8243 8.21301C18.0586 8.49703 18.0586 8.95752 17.8243 9.24154L12.4243 15.787C12.19 16.071 11.81 16.071 11.5757 15.787C11.3414 15.503 11.3414 15.0425 11.5757 14.7585L16.9758 8.21301C17.2101 7.929 17.59 7.929 17.8243 8.21301Z" fill="inherit"/>
</svg>
