<svg width="18" height="18" viewBox="0 0 18 18" fill="none" xmlns="http://www.w3.org/2000/svg">
<path d="M7.53751 1.89747L3.02251 4.84497C1.57501 5.78997 1.57501 7.90497 3.02251 8.84997L7.53751 11.7975C8.34751 12.33 9.68251 12.33 10.4925 11.7975L14.985 8.84997C16.425 7.90497 16.425 5.79747 14.985 4.85247L10.4925 1.90497C9.68251 1.36497 8.34751 1.36497 7.53751 1.89747Z" stroke="white" stroke-width="1.5" stroke-linecap="round" stroke-linejoin="round"/>
<path d="M4.22247 9.80994L4.21497 13.3274C4.21497 14.2799 4.94997 15.2999 5.84997 15.5999L8.24247 16.3949C8.65497 16.5299 9.33747 16.5299 9.75747 16.3949L12.15 15.5999C13.05 15.2999 13.785 14.2799 13.785 13.3274V9.84744" stroke="white" stroke-width="1.5" stroke-linecap="round" stroke-linejoin="round"/>
<path d="M16.05 11.25V6.75" stroke="white" stroke-width="1.5" stroke-linecap="round" stroke-linejoin="round"/>
</svg>
