<svg width="19" height="21" viewBox="0 0 19 21" fill="none" xmlns="http://www.w3.org/2000/svg">
<path fill-rule="evenodd" clip-rule="evenodd" d="M14.155 3.81818L18.05 3.81818C18.5747 3.81818 19 4.24555 19 4.77273C19 5.2999 18.5747 5.72727 18.05 5.72727L17.0425 5.72727L16.2595 18.315C16.1656 19.8242 14.92 21 13.415 21L5.58495 21C4.07996 21 2.83442 19.8242 2.74047 18.315L1.95748 5.72727L0.950001 5.72727C0.425316 5.72727 9.67179e-07 5.2999 1.01327e-06 4.77273C1.05935e-06 4.24555 0.425316 3.81818 0.950001 3.81818L2.84307 3.81818C2.84829 3.81813 2.85352 3.81813 2.85874 3.81818L4.845 3.81818C5.28514 1.63968 7.20195 -1.03142e-06 9.5 -8.30516e-07C11.798 -6.29618e-07 13.7149 1.63968 14.155 3.81818ZM12.1878 3.81818L6.81217 3.81818C7.20338 2.70595 8.25911 1.90909 9.5 1.90909C10.7409 1.90909 11.7966 2.70595 12.1878 3.81818ZM3.86128 5.72727L15.1388 5.72727L14.3632 18.1959C14.3319 18.699 13.9167 19.0909 13.415 19.0909L5.58495 19.0909C5.08326 19.0909 4.66811 18.699 4.63676 18.1959L3.86128 5.72727ZM7.33495 8.60017C6.8115 8.63701 6.41687 9.0931 6.45354 9.61905L6.85111 15.3323C6.88769 15.8582 7.34169 16.2548 7.86505 16.218C8.3885 16.1812 8.78313 15.7251 8.74646 15.1991L8.34888 9.48589C8.31231 8.95994 7.8583 8.56344 7.33495 8.60017ZM11.6651 8.60026C11.1417 8.56347 10.6877 8.95994 10.6511 9.48589L10.2534 15.1992C10.2169 15.7251 10.6115 16.1813 11.1349 16.218C11.6583 16.2548 12.1123 15.8582 12.1489 15.3324L12.5465 9.61905C12.5831 9.09319 12.1884 8.63701 11.6651 8.60026Z" fill="white"/>
</svg>
