<svg width="19" height="16" viewBox="0 0 22 19" fill="none" xmlns="http://www.w3.org/2000/svg">
<path fill-rule="evenodd" clip-rule="evenodd" d="M5.39252 1.83025C6.04361 0.75654 7.20958 0 8.54508 0H13.4549C14.7904 0 15.9564 0.75654 16.6075 1.83025C16.8059 2.15753 17.0281 2.50118 17.257 2.81533C17.3665 2.96564 17.5804 3.08571 17.8771 3.08571H17.9998C20.209 3.08571 22 4.87668 22 7.08571V15C22 17.2091 20.2091 19 18 19H4C1.79086 19 0 17.2091 0 15V7.08572C0 4.87668 1.79052 3.08571 3.99976 3.08571H4.12238C4.41912 3.08571 4.63348 2.96564 4.74301 2.81533C4.97193 2.50118 5.19407 2.15753 5.39252 1.83025ZM8.54508 2C7.98673 2 7.43356 2.32159 7.10267 2.86727C6.88516 3.22596 6.63139 3.61989 6.35939 3.99317C5.81056 4.74635 4.94404 5.08571 4.12286 5.08571H4.00024C2.89578 5.08571 2 5.98104 2 7.08572V15C2 16.1046 2.89543 17 4 17H18C19.1046 17 20 16.1046 20 15V7.08571C20 5.98104 19.1047 5.08571 18.0002 5.08571H17.8776C17.0564 5.08571 16.1894 4.74635 15.6406 3.99317C15.3686 3.61989 15.1148 3.22596 14.8973 2.86727C14.5664 2.32159 14.0133 2 13.4549 2H8.54508ZM11 7C9.3431 7 8 8.3431 8 10C8 11.6569 9.3431 13 11 13C12.6569 13 14 11.6569 14 10C14 8.3431 12.6569 7 11 7ZM6 10C6 7.23858 8.23858 5 11 5C13.7614 5 16 7.23858 16 10C16 12.7614 13.7614 15 11 15C8.23858 15 6 12.7614 6 10Z" fill="#0F1729"/>
</svg>
