<svg width="17" height="20" viewBox="0 0 17 20" fill="#000" xmlns="http://www.w3.org/2000/svg">
<path fill-rule="evenodd" clip-rule="evenodd" d="M8.5 2.10526C6.73954 2.10526 5.3125 3.51911 5.3125 5.26316C5.3125 7.00721 6.73954 8.42105 8.5 8.42105C10.2605 8.42105 11.6875 7.00721 11.6875 5.26316C11.6875 3.51911 10.2605 2.10526 8.5 2.10526ZM3.1875 5.26316C3.1875 2.3564 5.56599 0 8.5 0C11.434 0 13.8125 2.3564 13.8125 5.26316C13.8125 8.1699 11.434 10.5263 8.5 10.5263C5.56599 10.5263 3.1875 8.1699 3.1875 5.26316ZM3.6721 14.4488C2.55195 14.9417 2.125 15.564 2.125 16.3158C2.125 16.5512 2.16725 16.6844 2.22836 16.7811C2.28951 16.8777 2.4354 17.0414 2.82858 17.2176C3.66894 17.5942 5.3296 17.8947 8.5 17.8947C11.6704 17.8947 13.3311 17.5942 14.1714 17.2176C14.5646 17.0414 14.7105 16.8777 14.7716 16.7811C14.8327 16.6844 14.875 16.5512 14.875 16.3158C14.875 15.564 14.4481 14.9417 13.3279 14.4488C12.1777 13.9429 10.4892 13.6842 8.5 13.6842C6.51079 13.6842 4.82223 13.9429 3.6721 14.4488ZM2.8097 12.5248C4.35141 11.8465 6.38159 11.5789 8.5 11.5789C10.6184 11.5789 12.6486 11.8465 14.1903 12.5248C15.762 13.2162 17 14.436 17 16.3158C17 16.8071 16.9095 17.3661 16.5721 17.8993C16.2348 18.4322 15.7166 18.8357 15.0473 19.1357C13.7627 19.7115 11.7046 20 8.5 20C5.2954 20 3.23731 19.7115 1.95267 19.1357C1.28335 18.8357 0.765181 18.4322 0.42789 17.8993C0.0905675 17.3661 0 16.8071 0 16.3158C0 14.436 1.23798 13.2162 2.8097 12.5248Z" fill="inherit"/>
</svg>
