<svg width="22" height="17" viewBox="0 0 22 17" fill="#000" xmlns="http://www.w3.org/2000/svg">
<path fill-rule="evenodd" clip-rule="evenodd" d="M1.77538 0.218591C1.29584 -0.133191 0.604735 -0.0517062 0.231759 0.400578C-0.141216 0.852873 -0.0548222 1.50471 0.424721 1.85649L2.93023 3.6945C1.96279 4.71579 1.13371 5.89347 0.460393 7.15461L0.436545 7.19912C0.336094 7.38587 0.206405 7.62709 0.148391 7.92454C0.102246 8.16108 0.102246 8.43893 0.148391 8.67537C0.206405 8.97282 0.336094 9.21404 0.436545 9.40089L0.460393 9.4454C2.59404 13.4418 6.29181 16.5999 11.0001 16.5999C13.4544 16.5999 15.6341 15.7417 17.4609 14.354L20.2246 16.3813C20.7042 16.7332 21.3952 16.6517 21.7682 16.1994C22.1412 15.7471 22.0548 15.0953 21.5753 14.7435L1.77538 0.218591ZM15.6651 13.0366L13.6877 11.586C12.9443 12.1277 12.0121 12.45 11.0001 12.45C8.56997 12.45 6.60004 10.5919 6.60004 8.30001C6.60004 7.71413 6.72874 7.15669 6.96092 6.65133L4.66912 4.97011C3.81323 5.85122 3.05723 6.90427 2.42533 8.08784C2.39374 8.14698 2.37035 8.19086 2.35062 8.22904C2.33324 8.26266 2.32244 8.28475 2.31539 8.30001C2.32244 8.31526 2.33324 8.33736 2.35062 8.37097C2.37035 8.40915 2.39374 8.45293 2.42533 8.51217C4.35565 12.1277 7.44395 14.525 11.0001 14.525C12.6845 14.525 14.264 13.987 15.6651 13.0366ZM8.82053 8.01552C8.807 8.10848 8.80007 8.20352 8.80007 8.30001C8.80007 9.44602 9.785 10.375 11.0001 10.375C11.2933 10.375 11.5733 10.3208 11.8291 10.2226L8.82053 8.01552Z" fill="inherit"/>
<path d="M9.84566 4.29433L15.3994 8.36858C15.3999 8.34576 15.4001 8.32283 15.4001 8.30001C15.4001 6.00803 13.4301 4.15002 11.0001 4.15002C10.6006 4.15002 10.2135 4.20023 9.84566 4.29433Z" fill="inherit"/>
<path d="M19.5748 8.51225C19.1943 9.2248 18.7688 9.89014 18.3037 10.499L20.0392 11.7723C20.6017 11.0449 21.1034 10.2627 21.5397 9.44547L21.5636 9.40097C21.664 9.21411 21.7937 8.9729 21.8517 8.67545C21.8979 8.439 21.8979 8.16116 21.8517 7.92461C21.7937 7.62716 21.664 7.38595 21.5636 7.1992L21.5397 7.15469C19.4061 3.15829 15.7083 0.00012207 11.0001 0.00012207C9.11331 0.00012207 7.38889 0.507279 5.86232 1.3723L7.76443 2.76766C8.78055 2.31869 9.86659 2.07511 11.0001 2.07511C14.5562 2.07511 17.6444 4.47234 19.5748 8.08792C19.6064 8.14705 19.6298 8.19094 19.6495 8.22912C19.6669 8.26273 19.6777 8.28483 19.6847 8.30008C19.6777 8.31533 19.6669 8.33743 19.6495 8.37105C19.6298 8.40923 19.6064 8.45301 19.5748 8.51225Z" fill="inherit"/>
</svg>
