<svg width="22" height="17" viewBox="0 0 22 17" fill="#000" xmlns="http://www.w3.org/2000/svg">
<path fill-rule="evenodd" clip-rule="evenodd" d="M11 2.125C7.40678 2.125 4.28619 4.58 2.33569 8.28272C2.30378 8.34339 2.28015 8.38822 2.26022 8.42732C2.24265 8.46175 2.23175 8.48438 2.22461 8.5C2.23175 8.51562 2.24265 8.53825 2.26022 8.57268C2.28015 8.61178 2.30378 8.65661 2.33569 8.71728C4.28619 12.42 7.40678 14.875 11 14.875C14.5932 14.875 17.7138 12.42 19.6643 8.71728C19.6962 8.65661 19.7199 8.61178 19.7398 8.57268C19.7573 8.53825 19.7683 8.51562 19.7754 8.5C19.7683 8.48438 19.7573 8.46175 19.7398 8.42732C19.7199 8.38822 19.6962 8.34339 19.6643 8.28272C17.7138 4.58 14.5932 2.125 11 2.125ZM0.350225 7.327C2.50617 3.23428 6.24258 0 11 0C15.7574 0 19.4939 3.23428 21.6497 7.327C21.6576 7.34187 21.6656 7.35696 21.6739 7.37258C21.7753 7.56394 21.9064 7.81097 21.9651 8.11548C22.0116 8.35773 22.0116 8.64227 21.9651 8.88452C21.9064 9.18903 21.7753 9.43617 21.6739 9.62742C21.6656 9.64304 21.6576 9.65813 21.6497 9.673C19.4939 13.7658 15.7574 17 11 17C6.24258 17 2.50617 13.7658 0.350225 9.673C0.342434 9.65813 0.334387 9.64304 0.326139 9.62742C0.224638 9.43606 0.093582 9.18903 0.034962 8.88452C-0.011654 8.64227 -0.011654 8.35773 0.034962 8.11548C0.093582 7.81097 0.224638 7.56394 0.326139 7.37258C0.334387 7.35696 0.342434 7.34187 0.350225 7.327ZM11 6.375C9.77224 6.375 8.77701 7.32636 8.77701 8.5C8.77701 9.67364 9.77224 10.625 11 10.625C12.2277 10.625 13.223 9.67364 13.223 8.5C13.223 7.32636 12.2277 6.375 11 6.375ZM6.55405 8.5C6.55405 6.15279 8.54457 4.25 11 4.25C13.4555 4.25 15.446 6.15279 15.446 8.5C15.446 10.8472 13.4555 12.75 11 12.75C8.54457 12.75 6.55405 10.8472 6.55405 8.5Z" fill="inherit"/>
</svg>
